.
 
http://www.scenetime.com    -   SceneTime [ We been having it ] !!!


How come you press harder on a remote control when you know the battery is dead? so you better seed to get speed ;)

        Seed back for speed


...................................NFO:.................................................[pre]  
    *********** ****    ****      ***      ******** *********** ****    *** **********
           *+*     +*+*+* *+*+*+   *+* *+*   *+*    *+*    *+*     *+*+*   *+* *+*        
           +*+     +*+ +*+*+ +*+  +*+   +*+  +*+           +*+     *+*+*+  +*+ +*+        
           +$+     +$+  +*+  +$+ +$++*++$++* *$*           +$+     +$+ +*+ +$+ +$++*++$  
           +$+     +$+       +$+ +$+     +$+ +$+   +$+$    +$+     +$+  +$+$+$ +$+        
           $+$     $+$       $+$ $+$     $+$ $+$    $+$    $+$     $+$   $+$+$ $+$        
       $$$$$$$$$$$ $$$       $$$ $$$     $$$  $$$$$$$$ $$$$$$$$$$$ $$$    $$$$ $$$$$$$$$$     
                                                



                           Another Fine Release Brought to you from - IMAGiNE                   
                                                 

********************************************************************************************************************                                
                                 Super 8 2011 DVDSCR XViD AC3 - IMAGiNE
********************************************************************************************************************

Ripper ...........: IMAGiNE                                        IMDB Rating.......:7.7/10                             
Video Codec.......: XVID                                         Release Date......:05/08/11
Audio Codec.......:AC3                                           Theatre Date......:17/06/11
Audio Bitrate.....:448                                              Runtime.......:1h 51mn
Subtitles.........:NIL                                                 Language..........:ENGLISH
Resolution......: 720 x 304                                      IMDb URL..........:http://www.imdb.com/title/tt1650062/


[color=yellow]DETAILS:[/color]

Video
ID                               : 0
Format                           : MPEG-4 Visual
Format profile                   : Advanced Simple@L5
Format settings, BVOP            : 2
Format settings, QPel            : No
Format settings, GMC             : No warppoints
Format settings, Matrix          : Default (MPEG)
Muxing mode                      : Packed bitstream
Codec ID                         : XVID
Codec ID/Hint                    : XviD
Duration                         : 1h 51mn
Bit rate                         : 2 166 Kbps
Width                            : 720 pixels
Height                           : 304 pixels
Display aspect ratio             : 2.35:1
Frame rate                       : 23.976 fps
Color space                      : YUV
Chroma subsampling               : 4:2:0
Bit depth                        : 8 bits
Scan type                        : Progressive
Compression mode                 : Lossy
Bits/(Pixel*Frame)               : 0.413
Stream size                      : 1.69 GiB (82%)
Writing library                  : XviD 64

Audio
ID                               : 1
Format                           : AC-3
Format/Info                      : Audio Coding 3
Mode extension                   : CM (complete main)
Codec ID                         : 2000
Duration                         : 1h 51mn
Bit rate mode                    : Constant
Bit rate                         : 448 Kbps
Channel(s)                       : 2 channels
Channel positions                : Front: L R
Sampling rate                    : 48.0 KHz
Bit depth                        : 16 bits
Compression mode                 : Lossy
Stream size                      : 359 MiB (17%)
Alignment                        : Aligned on interleaves
Interleave, duration             : 42 ms (1.00 video frame)
Interleave, preload duration     : 512 ms





[color=yellow]SOURCES:[/color]

VIDEO: .............. Super.8.DvDScreener.Greatness 
AUDIO: .............. Super.8.DvDScreener.Greatness Thanks :D

[color=yellow]NOTES:[/color]

IMAGiNE bringing you another release..........
Super 8 DVDSCR.........
Ok heres our go at Super 8 DVDSCR.........
Source was very nice, 
thanks to GREATNESS  for that :D
Video had some interlace issues and such 
so we made a script to crop 
resize sharpen and deinterlace.......
Then we adjusted the brightness / contrast,
filtered the RGB and yada yada
Audio we converted from PCM 
to AC3 and remuxed to our encode :P
Enjoy Folks!

[color=yellow]SCREENS:[/color]


[color=yellow]GREETS:[/color]

FLAWL3SS,ViSiON,Rx,ELEKTRI4KA,ADDiCTED,Autotron,CiNEDUB,
And to all the other p2p grps past and present 

[COLOR=RED]Looking for these,syncers,cammers,audio,silver supplier.....Have anything to offer????......
Contact us imaginegroup@hushmail.com[/COLOR][/pre]